<svg version="1.1" viewBox="0 0 376.94 377.53" xmlns="http://www.w3.org/2000/svg"><g transform="translate(-261.52 -67.095)"><path d="m423.96 443.6c-44.074-6.7426-80.233-25.344-110.65-56.919-25.478-26.452-41.959-58.325-49.477-95.682-2.0166-10.021-2.3152-14.458-2.3218-34.5-9e-3 -27.022 1.6738-38.312 8.974-60.211 9.2268-27.678 23.266-50.835 43.412-71.607 30.356-31.299 68.357-50.555 110.96-56.227 13.619-1.813 36.654-1.813 50.273 0 80.894 10.769 145.64 72.285 161.07 153.04 1.9985 10.457 2.2872 15.022 2.2451 35.5-0.0443 21.536-0.27069 24.546-2.7095 36.021-7.8824 37.088-24.012 67.684-49.73 94.336-26.902 27.878-60.009 46.12-98.479 54.263-10.232 2.1658-15.251 2.6024-33.533 2.917-14.457 0.24879-24.297-0.0579-30.039-0.93634zm43.432-75.183c0.33385-0.86998 0.60699-26.295 0.60699-56.5v-54.918l14.25-0.0153c7.8375-8e-3 14.771-0.34684 15.408-0.75204 0.99359-0.63224 4.3422-28.984 4.3422-36.765v-2.4207l-34.5-0.54723 0.0531-12.512c0.0834-19.65 1.6154-21.153 22.197-21.78l13.25-0.4038v-37.645l-3.0859-0.67778c-4.1788-0.91782-40.057 0.37957-46.914 1.6965-12.242 2.3511-21.356 9.6493-27.362 21.912-4.4266 9.0379-5.5915 16.425-5.6183 35.627l-0.01982 14.217-22.5 0.5655-0.27151 19.226-0.2715 19.226 2.6294 0.65995c1.4462 0.36297 6.0684 0.43598 10.272 0.16224 4.2031-0.27373 8.2046-0.2972 8.8921-0.0522 0.97939 0.34908 1.25 12.317 1.25 55.28 0 30.159 0.27314 55.547 0.60699 56.417 0.52892 1.3784 3.5376 1.5818 23.393 1.5818s22.864-0.20344 23.393-1.5818z" fill="gray"></path></g></svg>