<svg version="1.1" viewBox="0 0 125.65 125.48" xmlns="http://www.w3.org/2000/svg">
    <g transform="translate(-85.192 -21.4)">
        <path d="m133 145.48c-7.8043-1.9146-12.532-4.0532-20.222-9.1472-27.5-18.218-35.861-56.432-18.599-85.002 7.4763-12.374 21.378-23.047 35.821-27.501 10.524-3.2453 25.476-3.2453 36 0 38.138 11.761 55.746 53.471 37.751 89.424-5.9593 11.906-15.42 21.097-27.863 27.068-5.1632 2.4778-11.772 4.9929-14.687 5.5893-7.0966 1.452-21.416 1.2328-28.201-0.43166zm29-32.419c0-6.0142-0.43886-12.089-0.97525-13.5-0.86491-2.2749-0.72348-2.5676 1.25-2.5871 6.8286-0.0674 15.765-7.7096 17.792-15.215 1.5193-5.6255 0.39941-16.297-2.1674-20.653-1.3938-2.3655-1.8023-4.2777-1.3519-6.3282 0.35496-1.6161 0.35651-4.4782 3e-3 -6.3602-0.84708-4.5153-3.2856-4.4812-8.158 0.114-3.3972 3.204-4.0279 3.4386-6.7204 2.5-3.8131-1.3292-16.739-1.3412-20.218-0.01878-2.3607 0.89752-3.1403 0.59667-6.6344-2.56-5.7491-5.194-7.3041-4.4422-7.3922 3.5736-0.0501 4.5574-0.62716 7.3427-1.9349 9.3385-2.9442 4.4935-3.3241 17.965-0.67546 23.953 2.2651 5.1207 8.9011 10.159 14.85 11.275 2.9826 0.55954 3.2518 0.88661 2.6851 3.2622-1.2064 5.059-2.2602 6.1403-5.9836 6.1403-3.3624 0-9.3691-2.6349-9.3691-4.1098 0-0.37325-1.3055-2.0762-2.9012-3.7844-2.0926-2.2402-3.8056-3.1058-6.146-3.1058h-3.2448l2.5613 2.3737c1.4087 1.3055 3.4797 4.1739 4.6022 6.3742 3.6281 7.1117 11.202 11.512 17.14 9.9592 1.8031-0.47152 1.9881-0.0168 1.9881 4.8865v5.4064h21z" fill="gray"/>
    </g>
</svg>