<svg version="1.1" viewBox="0 0 412 412.16" xmlns="http://www.w3.org/2000/svg">
    <g transform="translate(-255.06 -50.377)">
        <path fill="gray" d="m442 461.97c-95.685-9.0915-173.04-83.579-185.5-178.62-1.9269-14.699-1.9192-39.048 0.0171-53.819 8.9615-68.362 51.63-127.57 113.98-158.17 70.003-34.355 153.59-26.036 216 21.496 10.414 7.9322 30.379 28.232 38.999 39.653 49.68 65.824 55.293 154.8 14.288 226.5-15.359 26.857-40.77 53.691-67.025 70.78-23.336 15.189-53.358 26.488-81.568 30.7-13.015 1.9431-36.824 2.6631-49.195 1.4877zm-36-178.97v-73h-45v146h45zm72 32.049c0-48.892 0.49936-52.528 8.362-60.885 4.0389-4.2928 7.3799-6 14.214-7.2634 13.231-2.4458 24.2 4.0428 28.076 16.608 1.6764 5.4348 1.8479 10.005 1.8479 49.24v43.249l44.5 0.00141-0.0174-51.25c-0.0193-56.99-0.23724-59.437-6.4615-72.543-7.9816-16.807-24.309-26.207-45.521-26.207-16.112 0-26.291 4.2343-37.75 15.704l-7.25 7.2565v-18.96h-43v146h43zm-84.427-126.55c4.835-1.9697 10.324-7.3647 13.137-12.912 3.3496-6.606 3.6107-15.978 0.62931-22.59-2.8244-6.2642-9.9235-12.502-16.425-14.433-6.5522-1.9458-9.2229-1.9612-15.526-0.0895-18.046 5.3591-24.415 28.51-11.917 43.316 6.686 7.9207 19.898 10.865 30.102 6.7081z"/>
    </g>
</svg>