<svg version="1.1" viewBox="0 0 260.87 261.27" xmlns="http://www.w3.org/2000/svg">
    <g transform="translate(-289.37 -298.39)">
        <path d="m405.5 558.99c-14.445-1.8389-30.395-6.7427-44.172-13.581l-13.172-6.5377-12.828 3.1745c-7.0554 1.746-17.519 4.475-23.252 6.0644-12.21 3.3852-13.529 3.5125-12.65 1.2204 0.35236-0.91824 3.3656-11.664 6.6962-23.879l6.0555-22.209-2.5581-4.0522c-10.43-16.522-17.92-38.673-19.71-58.288-5.7042-62.508 34.61-120.94 94.822-137.45 24.163-6.6222 45.447-6.7427 69.268-0.39217 40.851 10.891 74.938 42.361 88.812 81.993 5.6162 16.043 7.4347 26.792 7.4347 43.943 0 17.142-1.8141 27.873-7.4289 43.943-12.691 36.324-45.238 68.218-81.565 79.932-17.315 5.5832-40.205 8.0935-55.752 6.1142zm68.601-56.172c9.2902-3.2298 19.906-11.451 22.459-17.393 2.3292-5.4214 3.7563-15.967 2.4829-18.346-1.3856-2.589-31.319-17.78-36.744-18.647-3.7363-0.59746-3.9045-0.48397-9.236 6.2299-8.9442 11.263-11.167 13.338-14.287 13.338-2.9518 0-10.695-3.5696-21.775-10.039-14.513-8.473-36-32.872-36-40.878 0-1.109 2.054-4.329 4.5645-7.1557 2.5105-2.8266 5.5068-7.0788 6.6584-9.4493l2.0939-4.3099-6.9084-17.179c-3.8528-9.5808-8.0811-18.464-9.5596-20.084-2.409-2.6394-3.248-2.9048-9.1849-2.9048-8.5416 0-10.777 0.95885-16.587 7.1152-11.508 12.193-14.81 29.004-9.1529 46.598 2.7872 8.6676 5.2046 13.156 13.889 25.787 17.517 25.479 35.481 42.488 56.633 53.624 7.4481 3.921 29.478 12.122 38.055 14.168 4.1225 0.98292 19.328 0.66475 22.601-0.47291z" fill="gray">
        </path>
    </g>
</svg>